<svg width="40" height="40" viewBox="0 0 40 40" fill="none" xmlns="http://www.w3.org/2000/svg">
<g filter="url(#filter0_d_981_1550)">
<circle cx="20" cy="16" r="10" fill="#E2195B"/>
<circle cx="20" cy="16" r="9.5" stroke="white"/>
</g>
<path d="M23.1104 21H16.6025C16.6025 20.3939 16.6937 19.8447 16.876 19.3525C17.0583 18.8558 17.2952 18.4434 17.5869 18.1152C17.8831 17.7871 18.2067 17.4863 18.5576 17.2129C18.9131 16.9395 19.2663 16.6911 19.6172 16.4678C19.9681 16.2399 20.2894 16.0166 20.5811 15.7979C20.8773 15.5791 21.1165 15.3239 21.2988 15.0322C21.4811 14.736 21.5723 14.4147 21.5723 14.0684C21.5723 13.5716 21.4173 13.1797 21.1074 12.8926C20.8021 12.6055 20.3737 12.4619 19.8223 12.4619C19.5534 12.4619 19.3005 12.512 19.0635 12.6123C18.8311 12.708 18.6488 12.8242 18.5166 12.9609C18.389 13.0931 18.2751 13.2275 18.1748 13.3643C18.0791 13.501 18.013 13.6195 17.9766 13.7197L17.9287 13.8633L16.6709 13.3027C16.6891 13.2389 16.7142 13.1569 16.7461 13.0566C16.7826 12.9564 16.8783 12.7786 17.0332 12.5234C17.1927 12.2682 17.3773 12.0426 17.5869 11.8467C17.7965 11.6507 18.0996 11.4707 18.4961 11.3066C18.8926 11.1426 19.3346 11.0605 19.8223 11.0605C20.7839 11.0605 21.5723 11.3499 22.1875 11.9287C22.8027 12.5075 23.1104 13.2207 23.1104 14.0684C23.1104 14.515 23.0192 14.9297 22.8369 15.3125C22.6546 15.6953 22.4222 16.0166 22.1396 16.2764C21.8617 16.5316 21.5404 16.7959 21.1758 17.0693C20.8158 17.3382 20.4648 17.5843 20.123 17.8076C19.7812 18.0309 19.444 18.2998 19.1113 18.6143C18.7832 18.9242 18.5303 19.2523 18.3525 19.5986H23.1104V21Z" fill="white"/>
<defs>
<filter id="filter0_d_981_1550" x="0" y="0" width="40" height="40" filterUnits="userSpaceOnUse" color-interpolation-filters="sRGB">
<feFlood flood-opacity="0" result="BackgroundImageFix"/>
<feColorMatrix in="SourceAlpha" type="matrix" values="0 0 0 0 0 0 0 0 0 0 0 0 0 0 0 0 0 0 127 0" result="hardAlpha"/>
<feOffset dy="4"/>
<feGaussianBlur stdDeviation="5"/>
<feColorMatrix type="matrix" values="0 0 0 0 0.133333 0 0 0 0 0.164706 0 0 0 0 0.27451 0 0 0 0.1 0"/>
<feBlend mode="normal" in2="BackgroundImageFix" result="effect1_dropShadow_981_1550"/>
<feBlend mode="normal" in="SourceGraphic" in2="effect1_dropShadow_981_1550" result="shape"/>
</filter>
</defs>
</svg>
