<svg width="20" height="20" viewBox="0 0 20 20" fill="none" xmlns="http://www.w3.org/2000/svg">
<g clip-path="url(#clip0_981_1600)">
<path d="M2.85788 5.10028C2.85788 4.50592 3.094 3.9359 3.51427 3.51562C3.93455 3.09534 4.50457 2.85923 5.09894 2.85923H6.1176C6.70934 2.85889 7.27693 2.62453 7.69652 2.20728L8.40959 1.49422C8.61785 1.28479 8.86546 1.11858 9.13817 1.00517C9.41089 0.891759 9.70334 0.833374 9.9987 0.833374C10.2941 0.833374 10.5865 0.891759 10.8592 1.00517C11.1319 1.11858 11.3795 1.28479 11.5878 1.49422L12.3009 2.20728C12.7205 2.62453 13.2881 2.85889 13.8798 2.85923H14.8985C15.4928 2.85923 16.0628 3.09534 16.4831 3.51562C16.9034 3.9359 17.1395 4.50592 17.1395 5.10028V6.11894C17.1398 6.71068 17.3742 7.27827 17.7915 7.69787L18.5045 8.41093C18.714 8.61919 18.8802 8.8668 18.9936 9.13952C19.107 9.41223 19.1654 9.70468 19.1654 10C19.1654 10.2954 19.107 10.5878 18.9936 10.8606C18.8802 11.1333 18.714 11.3809 18.5045 11.5891L17.7915 12.3022C17.3742 12.7218 17.1398 13.2894 17.1395 13.8811V14.8998C17.1395 15.4942 16.9034 16.0642 16.4831 16.4845C16.0628 16.9047 15.4928 17.1409 14.8985 17.1409H13.8798C13.2881 17.1412 12.7205 17.3755 12.3009 17.7928L11.5878 18.5059C11.3795 18.7153 11.1319 18.8815 10.8592 18.9949C10.5865 19.1083 10.2941 19.1667 9.9987 19.1667C9.70334 19.1667 9.41089 19.1083 9.13817 18.9949C8.86546 18.8815 8.61785 18.7153 8.40959 18.5059L7.69652 17.7928C7.27693 17.3755 6.70934 17.1412 6.1176 17.1409H5.09894C4.50457 17.1409 3.93455 16.9047 3.51427 16.4845C3.094 16.0642 2.85788 15.4942 2.85788 14.8998V13.8811C2.85755 13.2894 2.62319 12.7218 2.20594 12.3022L1.49288 11.5891C1.28344 11.3809 1.11724 11.1333 1.00383 10.8606C0.890416 10.5878 0.832031 10.2954 0.832031 10C0.832031 9.70468 0.890416 9.41223 1.00383 9.13952C1.11724 8.8668 1.28344 8.61919 1.49288 8.41093L2.20594 7.69787C2.62319 7.27827 2.85755 6.71068 2.85788 6.11894V5.10028Z" fill="#E2195B"/>
<path d="M2.85788 5.10028C2.85788 4.50592 3.094 3.9359 3.51427 3.51562C3.93455 3.09534 4.50457 2.85923 5.09894 2.85923H6.1176C6.70934 2.85889 7.27693 2.62453 7.69652 2.20728L8.40959 1.49422C8.61785 1.28479 8.86546 1.11858 9.13817 1.00517C9.41089 0.891759 9.70334 0.833374 9.9987 0.833374C10.2941 0.833374 10.5865 0.891759 10.8592 1.00517C11.1319 1.11858 11.3795 1.28479 11.5878 1.49422L12.3009 2.20728C12.7205 2.62453 13.2881 2.85889 13.8798 2.85923H14.8985C15.4928 2.85923 16.0628 3.09534 16.4831 3.51562C16.9034 3.9359 17.1395 4.50592 17.1395 5.10028V6.11894C17.1398 6.71068 17.3742 7.27827 17.7915 7.69787L18.5045 8.41093C18.714 8.61919 18.8802 8.8668 18.9936 9.13952C19.107 9.41223 19.1654 9.70468 19.1654 10C19.1654 10.2954 19.107 10.5878 18.9936 10.8606C18.8802 11.1333 18.714 11.3809 18.5045 11.5891L17.7915 12.3022C17.3742 12.7218 17.1398 13.2894 17.1395 13.8811V14.8998C17.1395 15.4942 16.9034 16.0642 16.4831 16.4845C16.0628 16.9047 15.4928 17.1409 14.8985 17.1409H13.8798C13.2881 17.1412 12.7205 17.3755 12.3009 17.7928L11.5878 18.5059C11.3795 18.7153 11.1319 18.8815 10.8592 18.9949C10.5865 19.1083 10.2941 19.1667 9.9987 19.1667C9.70334 19.1667 9.41089 19.1083 9.13817 18.9949C8.86546 18.8815 8.61785 18.7153 8.40959 18.5059L7.69652 17.7928C7.27693 17.3755 6.70934 17.1412 6.1176 17.1409H5.09894C4.50457 17.1409 3.93455 16.9047 3.51427 16.4845C3.094 16.0642 2.85788 15.4942 2.85788 14.8998V13.8811C2.85755 13.2894 2.62319 12.7218 2.20594 12.3022L1.49288 11.5891C1.28344 11.3809 1.11724 11.1333 1.00383 10.8606C0.890416 10.5878 0.832031 10.2954 0.832031 10C0.832031 9.70468 0.890416 9.41223 1.00383 9.13952C1.11724 8.8668 1.28344 8.61919 1.49288 8.41093L2.20594 7.69787C2.62319 7.27827 2.85755 6.71068 2.85788 6.11894V5.10028" stroke="#E2195B" stroke-width="2"/>
<path d="M6.66797 13.3333L13.3346 6.66663" stroke="white" stroke-width="2" stroke-linecap="round" stroke-linejoin="round"/>
<path d="M7.22352 7.77774C7.53035 7.77774 7.77908 7.52901 7.77908 7.22218C7.77908 6.91536 7.53035 6.66663 7.22352 6.66663C6.9167 6.66663 6.66797 6.91536 6.66797 7.22218C6.66797 7.52901 6.9167 7.77774 7.22352 7.77774Z" fill="white" stroke="white" stroke-width="2" stroke-linecap="round" stroke-linejoin="round"/>
<path d="M12.7782 13.3333C13.085 13.3333 13.3338 13.0845 13.3338 12.7777C13.3338 12.4709 13.085 12.2222 12.7782 12.2222C12.4714 12.2222 12.2227 12.4709 12.2227 12.7777C12.2227 13.0845 12.4714 13.3333 12.7782 13.3333Z" fill="white" stroke="white" stroke-width="2" stroke-linecap="round" stroke-linejoin="round"/>
</g>
<defs>
<clipPath id="clip0_981_1600">
<rect width="20" height="20" fill="white"/>
</clipPath>
</defs>
</svg>
